<mxfile host="app.diagrams.net" modified="2024-01-15T10:00:00.000Z" agent="5.0" etag="abc123" version="22.1.16" type="device">
  <diagram name="Networth API Flow" id="networth-sequence">
    <mxGraphModel dx="1422" dy="794" grid="1" gridSize="10" guides="1" tooltips="1" connect="1" arrows="1" fold="1" page="1" pageScale="1" pageWidth="1169" pageHeight="827" math="0" shadow="0">
      <root>
        <mxCell id="0" />
        <mxCell id="1" parent="0" />
        
        <!-- Actors -->
        <mxCell id="fe" value="Frontend (FE)" style="shape=umlLifeline;perimeter=lifelinePerimeter;whiteSpace=wrap;html=1;container=1;collapsible=0;recursiveResize=0;outlineConnect=0;fillColor=#dae8fc;strokeColor=#6c8ebf;" vertex="1" parent="1">
          <mxGeometry x="80" y="40" width="80" height="600" as="geometry" />
        </mxCell>
        
        <mxCell id="networth" value="Networth API" style="shape=umlLifeline;perimeter=lifelinePerimeter;whiteSpace=wrap;html=1;container=1;collapsible=0;recursiveResize=0;outlineConnect=0;fillColor=#d5e8d4;strokeColor=#82b366;" vertex="1" parent="1">
          <mxGeometry x="200" y="40" width="100" height="600" as="geometry" />
        </mxCell>
        
        <mxCell id="esb" value="ESB" style="shape=umlLifeline;perimeter=lifelinePerimeter;whiteSpace=wrap;html=1;container=1;collapsible=0;recursiveResize=0;outlineConnect=0;fillColor=#fff2cc;strokeColor=#d6b656;" vertex="1" parent="1">
          <mxGeometry x="340" y="40" width="80" height="600" as="geometry" />
        </mxCell>
        
        <mxCell id="c24" value="C24" style="shape=umlLifeline;perimeter=lifelinePerimeter;whiteSpace=wrap;html=1;container=1;collapsible=0;recursiveResize=0;outlineConnect=0;fillColor=#fff2cc;strokeColor=#d6b656;" vertex="1" parent="1">
          <mxGeometry x="460" y="40" width="80" height="600" as="geometry" />
        </mxCell>
        
        <mxCell id="finacle" value="Finacle" style="shape=umlLifeline;perimeter=lifelinePerimeter;whiteSpace=wrap;html=1;container=1;collapsible=0;recursiveResize=0;outlineConnect=0;fillColor=#fff2cc;strokeColor=#d6b656;" vertex="1" parent="1">
          <mxGeometry x="580" y="40" width="80" height="600" as="geometry" />
        </mxCell>
        
        <mxCell id="frsb" value="FRSB" style="shape=umlLifeline;perimeter=lifelinePerimeter;whiteSpace=wrap;html=1;container=1;collapsible=0;recursiveResize=0;outlineConnect=0;fillColor=#fff2cc;strokeColor=#d6b656;" vertex="1" parent="1">
          <mxGeometry x="700" y="40" width="80" height="600" as="geometry" />
        </mxCell>
        
        <mxCell id="asl" value="ASL" style="shape=umlLifeline;perimeter=lifelinePerimeter;whiteSpace=wrap;html=1;container=1;collapsible=0;recursiveResize=0;outlineConnect=0;fillColor=#fff2cc;strokeColor=#d6b656;" vertex="1" parent="1">
          <mxGeometry x="820" y="40" width="80" height="600" as="geometry" />
        </mxCell>
        
        <mxCell id="experian" value="Experian" style="shape=umlLifeline;perimeter=lifelinePerimeter;whiteSpace=wrap;html=1;container=1;collapsible=0;recursiveResize=0;outlineConnect=0;fillColor=#fff2cc;strokeColor=#d6b656;" vertex="1" parent="1">
          <mxGeometry x="940" y="40" width="80" height="600" as="geometry" />
        </mxCell>
        
        <mxCell id="lumiq" value="Lumiq" style="shape=umlLifeline;perimeter=lifelinePerimeter;whiteSpace=wrap;html=1;container=1;collapsible=0;recursiveResize=0;outlineConnect=0;fillColor=#fff2cc;strokeColor=#d6b656;" vertex="1" parent="1">
          <mxGeometry x="1060" y="40" width="80" height="600" as="geometry" />
        </mxCell>
        
        <mxCell id="kafka" value="Kafka" style="shape=umlLifeline;perimeter=lifelinePerimeter;whiteSpace=wrap;html=1;container=1;collapsible=0;recursiveResize=0;outlineConnect=0;fillColor=#f8cecc;strokeColor=#b85450;" vertex="1" parent="1">
          <mxGeometry x="200" y="40" width="80" height="600" as="geometry" />
        </mxCell>
        
        <mxCell id="biu" value="BIU" style="shape=umlLifeline;perimeter=lifelinePerimeter;whiteSpace=wrap;html=1;container=1;collapsible=0;recursiveResize=0;outlineConnect=0;fillColor=#e1d5e7;strokeColor=#9673a6;" vertex="1" parent="1">
          <mxGeometry x="320" y="40" width="80" height="600" as="geometry" />
        </mxCell>
        
        <!-- Messages -->
        <!-- 1. FE to Networth API -->
        <mxCell id="msg1" value="1. Networth Request" style="html=1;verticalAlign=bottom;endArrow=block;entryX=0;entryY=0;entryDx=0;entryDy=0;curved=0;rounded=0;strokeColor=#000000;strokeWidth=2;" edge="1" parent="1" source="fe" target="networth">
          <mxGeometry relative="1" as="geometry">
            <mxPoint x="120" y="80" as="sourcePoint" />
            <mxPoint x="250" y="80" as="targetPoint" />
          </mxGeometry>
        </mxCell>
        
        <!-- 2. Networth to ESB -->
        <mxCell id="msg2" value="2. ESB Call" style="html=1;verticalAlign=bottom;endArrow=block;entryX=0;entryY=0;entryDx=0;entryDy=0;curved=0;rounded=0;strokeColor=#000000;strokeWidth=2;" edge="1" parent="1" source="networth" target="esb">
          <mxGeometry relative="1" as="geometry">
            <mxPoint x="300" y="120" as="sourcePoint" />
            <mxPoint x="380" y="120" as="targetPoint" />
          </mxGeometry>
        </mxCell>
        
        <!-- 3. Networth to C24 -->
        <mxCell id="msg3" value="3. C24 Call" style="html=1;verticalAlign=bottom;endArrow=block;entryX=0;entryY=0;entryDx=0;entryDy=0;curved=0;rounded=0;strokeColor=#000000;strokeWidth=2;" edge="1" parent="1" source="networth" target="c24">
          <mxGeometry relative="1" as="geometry">
            <mxPoint x="300" y="140" as="sourcePoint" />
            <mxPoint x="500" y="140" as="targetPoint" />
          </mxGeometry>
        </mxCell>
        
        <!-- 4. Networth to Finacle -->
        <mxCell id="msg4" value="4. Finacle Call" style="html=1;verticalAlign=bottom;endArrow=block;entryX=0;entryY=0;entryDx=0;entryDy=0;curved=0;rounded=0;strokeColor=#000000;strokeWidth=2;" edge="1" parent="1" source="networth" target="finacle">
          <mxGeometry relative="1" as="geometry">
            <mxPoint x="300" y="160" as="sourcePoint" />
            <mxPoint x="620" y="160" as="targetPoint" />
          </mxGeometry>
        </mxCell>
        
        <!-- 5. Networth to FRSB -->
        <mxCell id="msg5" value="5. FRSB Call" style="html=1;verticalAlign=bottom;endArrow=block;entryX=0;entryY=0;entryDx=0;entryDy=0;curved=0;rounded=0;strokeColor=#000000;strokeWidth=2;" edge="1" parent="1" source="networth" target="frsb">
          <mxGeometry relative="1" as="geometry">
            <mxPoint x="300" y="180" as="sourcePoint" />
            <mxPoint x="740" y="180" as="targetPoint" />
          </mxGeometry>
        </mxCell>
        
        <!-- 6. Networth to ASL -->
        <mxCell id="msg6" value="6. ASL Call" style="html=1;verticalAlign=bottom;endArrow=block;entryX=0;entryY=0;entryDx=0;entryDy=0;curved=0;rounded=0;strokeColor=#000000;strokeWidth=2;" edge="1" parent="1" source="networth" target="asl">
          <mxGeometry relative="1" as="geometry">
            <mxPoint x="300" y="200" as="sourcePoint" />
            <mxPoint x="860" y="200" as="targetPoint" />
          </mxGeometry>
        </mxCell>
        
        <!-- 7. Networth to Experian -->
        <mxCell id="msg7" value="7. Experian Call" style="html=1;verticalAlign=bottom;endArrow=block;entryX=0;entryY=0;entryDx=0;entryDy=0;curved=0;rounded=0;strokeColor=#000000;strokeWidth=2;" edge="1" parent="1" source="networth" target="experian">
          <mxGeometry relative="1" as="geometry">
            <mxPoint x="300" y="220" as="sourcePoint" />
            <mxPoint x="980" y="220" as="targetPoint" />
          </mxGeometry>
        </mxCell>
        
        <!-- 8. Networth to Lumiq -->
        <mxCell id="msg8" value="8. Lumiq Call" style="html=1;verticalAlign=bottom;endArrow=block;entryX=0;entryY=0;entryDx=0;entryDy=0;curved=0;rounded=0;strokeColor=#000000;strokeWidth=2;" edge="1" parent="1" source="networth" target="lumiq">
          <mxGeometry relative="1" as="geometry">
            <mxPoint x="300" y="240" as="sourcePoint" />
            <mxPoint x="1100" y="240" as="targetPoint" />
          </mxGeometry>
        </mxCell>
        
        <!-- Response messages -->
        <!-- 9. ESB Response -->
        <mxCell id="msg9" value="9. ESB Response" style="html=1;verticalAlign=bottom;endArrow=block;entryX=1;entryY=0;entryDx=0;entryDy=0;curved=0;rounded=0;strokeColor=#000000;strokeWidth=2;dashed=1;" edge="1" parent="1" source="esb" target="networth">
          <mxGeometry relative="1" as="geometry">
            <mxPoint x="380" y="280" as="sourcePoint" />
            <mxPoint x="300" y="280" as="targetPoint" />
          </mxGeometry>
        </mxCell>
        
        <!-- 10. C24 Response -->
        <mxCell id="msg10" value="10. C24 Response" style="html=1;verticalAlign=bottom;endArrow=block;entryX=1;entryY=0;entryDx=0;entryDy=0;curved=0;rounded=0;strokeColor=#000000;strokeWidth=2;dashed=1;" edge="1" parent="1" source="c24" target="networth">
          <mxGeometry relative="1" as="geometry">
            <mxPoint x="500" y="300" as="sourcePoint" />
            <mxPoint x="300" y="300" as="targetPoint" />
          </mxGeometry>
        </mxCell>
        
        <!-- 11. Finacle Response -->
        <mxCell id="msg11" value="11. Finacle Response" style="html=1;verticalAlign=bottom;endArrow=block;entryX=1;entryY=0;entryDx=0;entryDy=0;curved=0;rounded=0;strokeColor=#000000;strokeWidth=2;dashed=1;" edge="1" parent="1" source="finacle" target="networth">
          <mxGeometry relative="1" as="geometry">
            <mxPoint x="620" y="320" as="sourcePoint" />
            <mxPoint x="300" y="320" as="targetPoint" />
          </mxGeometry>
        </mxCell>
        
        <!-- 12. FRSB Response -->
        <mxCell id="msg12" value="12. FRSB Response" style="html=1;verticalAlign=bottom;endArrow=block;entryX=1;entryY=0;entryDx=0;entryDy=0;curved=0;rounded=0;strokeColor=#000000;strokeWidth=2;dashed=1;" edge="1" parent="1" source="frsb" target="networth">
          <mxGeometry relative="1" as="geometry">
            <mxPoint x="740" y="340" as="sourcePoint" />
            <mxPoint x="300" y="340" as="targetPoint" />
          </mxGeometry>
        </mxCell>
        
        <!-- 13. ASL Response -->
        <mxCell id="msg13" value="13. ASL Response" style="html=1;verticalAlign=bottom;endArrow=block;entryX=1;entryY=0;entryDx=0;entryDy=0;curved=0;rounded=0;strokeColor=#000000;strokeWidth=2;dashed=1;" edge="1" parent="1" source="asl" target="networth">
          <mxGeometry relative="1" as="geometry">
            <mxPoint x="860" y="360" as="sourcePoint" />
            <mxPoint x="300" y="360" as="targetPoint" />
          </mxGeometry>
        </mxCell>
        
        <!-- 14. Experian Response -->
        <mxCell id="msg14" value="14. Experian Response" style="html=1;verticalAlign=bottom;endArrow=block;entryX=1;entryY=0;entryDx=0;entryDy=0;curved=0;rounded=0;strokeColor=#000000;strokeWidth=2;dashed=1;" edge="1" parent="1" source="experian" target="networth">
          <mxGeometry relative="1" as="geometry">
            <mxPoint x="980" y="380" as="sourcePoint" />
            <mxPoint x="300" y="380" as="targetPoint" />
          </mxGeometry>
        </mxCell>
        
        <!-- 15. Lumiq Response -->
        <mxCell id="msg15" value="15. Lumiq Response" style="html=1;verticalAlign=bottom;endArrow=block;entryX=1;entryY=0;entryDx=0;entryDy=0;curved=0;rounded=0;strokeColor=#000000;strokeWidth=2;dashed=1;" edge="1" parent="1" source="lumiq" target="networth">
          <mxGeometry relative="1" as="geometry">
            <mxPoint x="1100" y="400" as="sourcePoint" />
            <mxPoint x="300" y="400" as="targetPoint" />
          </mxGeometry>
        </mxCell>
        
        <!-- 16. Networth to FE Response -->
        <mxCell id="msg16" value="16. Aggregated Networth Response" style="html=1;verticalAlign=bottom;endArrow=block;entryX=1;entryY=0;entryDx=0;entryDy=0;curved=0;rounded=0;strokeColor=#000000;strokeWidth=2;dashed=1;" edge="1" parent="1" source="networth" target="fe">
          <mxGeometry relative="1" as="geometry">
            <mxPoint x="250" y="420" as="sourcePoint" />
            <mxPoint x="120" y="420" as="targetPoint" />
          </mxGeometry>
        </mxCell>
        
        <!-- 17. Async Kafka Publish -->
        <mxCell id="msg17" value="17. Async: Publish to Kafka" style="html=1;verticalAlign=bottom;endArrow=block;entryX=0;entryY=0;entryDx=0;entryDy=0;curved=0;rounded=0;strokeColor=#ff0000;strokeWidth=2;dashed=1;" edge="1" parent="1" source="networth" target="kafka">
          <mxGeometry relative="1" as="geometry">
            <mxPoint x="300" y="460" as="sourcePoint" />
            <mxPoint x="240" y="460" as="targetPoint" />
          </mxGeometry>
        </mxCell>
        
        <!-- 18. Kafka to BIU -->
        <mxCell id="msg18" value="18. Consume from Kafka" style="html=1;verticalAlign=bottom;endArrow=block;entryX=0;entryY=0;entryDx=0;entryDy=0;curved=0;rounded=0;strokeColor=#ff0000;strokeWidth=2;dashed=1;" edge="1" parent="1" source="kafka" target="biu">
          <mxGeometry relative="1" as="geometry">
            <mxPoint x="240" y="500" as="sourcePoint" />
            <mxPoint x="360" y="500" as="targetPoint" />
          </mxGeometry>
        </mxCell>
        
        <!-- Notes -->
        <mxCell id="note1" value="Parallel/Sequential calls to downstream systems" style="text;html=1;strokeColor=none;fillColor=none;align=center;verticalAlign=middle;whiteSpace=wrap;rounded=0;fontStyle=1;fontSize=10;" vertex="1" parent="1">
          <mxGeometry x="300" y="100" width="200" height="20" as="geometry" />
        </mxCell>
        
        <mxCell id="note2" value="Aggregate all responses" style="text;html=1;strokeColor=none;fillColor=none;align=center;verticalAlign=middle;whiteSpace=wrap;rounded=0;fontStyle=1;fontSize=10;" vertex="1" parent="1">
          <mxGeometry x="300" y="400" width="150" height="20" as="geometry" />
        </mxCell>
        
        <mxCell id="note3" value="Asynchronous processing" style="text;html=1;strokeColor=none;fillColor=none;align=center;verticalAlign=middle;whiteSpace=wrap;rounded=0;fontStyle=1;fontSize=10;fontColor=#ff0000;" vertex="1" parent="1">
          <mxGeometry x="200" y="480" width="150" height="20" as="geometry" />
        </mxCell>
        
        <!-- Title -->
        <mxCell id="title" value="Networth API Sequence Flow" style="text;html=1;strokeColor=none;fillColor=none;align=center;verticalAlign=middle;whiteSpace=wrap;rounded=0;fontStyle=1;fontSize=16;" vertex="1" parent="1">
          <mxGeometry x="400" y="10" width="300" height="30" as="geometry" />
        </mxCell>
        
      </root>
    </mxGraphModel>
  </diagram>
</mxfile>
